<svg version="1.2" baseProfile="tiny-ps" xmlns="http://www.w3.org/2000/svg" viewBox="0 0 1280 233" width="1280" height="233">
	<title>avatarz logo</title>
	<style>
		tspan { white-space:pre }
	</style>
	<path id="&lt;avatarz/&gt;" fill="#61dbfb" aria-label="&lt;avatarz/&gt;"  d="m16.45 115.34l124.35-50.71v28.79l-90.72 36.44l90.72 36.44v28.79l-124.35-50.96v-28.79zm208.95-40.52q28.03 0 41.28 13.25q13.51 13.25 13.51 41.03v73.9h-36.44v-18.6q-3.82 9.68-12.74 15.29q-8.92 5.35-20.9 5.35q-12.74 0-23.19-5.1q-10.19-5.1-16.31-14.27q-5.86-9.17-5.86-20.39q0-13.76 6.88-21.66q7.13-7.9 22.68-11.47q15.54-3.57 42.55-3.57h6.63v-4.59q0-11.21-4.84-15.8q-4.84-4.59-16.82-4.59q-9.17 0-20.39 3.31q-11.21 3.31-21.4 9.17l-10.19-25.74q10.7-6.63 26.25-10.96q15.8-4.59 29.3-4.59zm-6.88 103.71q11.21 0 18.09-7.39q6.88-7.64 6.88-19.62v-4.33h-4.33q-20.64 0-29.05 3.31q-8.15 3.31-8.15 11.98q0 6.88 4.59 11.47q4.84 4.59 11.98 4.59zm144.48-20.9l32.62-79.5h37.71l-55.04 124.86h-32.62l-54.28-124.86l40.01 0l31.6 79.5zm136.33-82.82q28.03 0 41.28 13.25q13.51 13.25 13.51 41.03v73.9h-36.44v-18.6q-3.82 9.68-12.74 15.29q-8.92 5.35-20.9 5.35q-12.74 0-23.19-5.1q-10.19-5.1-16.31-14.27q-5.86-9.17-5.86-20.39q0-13.76 6.88-21.66q7.13-7.9 22.68-11.47q15.54-3.57 42.55-3.57h6.63v-4.59q0-11.21-4.84-15.8q-4.84-4.59-16.82-4.59q-9.17 0-20.39 3.31q-11.21 3.31-21.4 9.17l-10.19-25.74q10.7-6.63 26.25-10.96q15.8-4.59 29.3-4.59zm-6.88 103.71q11.21 0 18.09-7.39q6.88-7.64 6.88-19.62v-4.33h-4.33q-20.64 0-29.05 3.31q-8.15 3.31-8.15 11.98q0 6.88 4.59 11.47q4.84 4.59 11.98 4.59zm159.77-1.78q5.86 0 12.23-0.76l-2.04 28.03q-7.39 1.02-14.78 1.02q-28.54 0-41.79-12.49q-13-12.49-13-37.97v-47.91h-23.7v-28.79h23.7v-36.69h38.48v36.69h31.34v28.79h-31.34v47.65q0 22.42 20.9 22.42zm84.85-101.93q28.03 0 41.28 13.25q13.51 13.25 13.51 41.03v73.9h-36.44v-18.6q-3.82 9.68-12.74 15.29q-8.92 5.35-20.9 5.35q-12.74 0-23.19-5.1q-10.19-5.1-16.31-14.27q-5.86-9.17-5.86-20.39q0-13.76 6.88-21.66q7.13-7.9 22.68-11.47q15.54-3.57 42.55-3.57h6.63v-4.59q0-11.21-4.84-15.8q-4.84-4.59-16.82-4.59q-9.17 0-20.39 3.31q-11.21 3.31-21.4 9.17l-10.19-25.74q10.7-6.63 26.25-10.96q15.8-4.59 29.3-4.59zm-6.88 103.71q11.21 0 18.09-7.39q6.88-7.64 6.88-19.62v-4.33h-4.33q-20.64 0-29.05 3.31q-8.15 3.31-8.15 11.98q0 6.88 4.59 11.47q4.84 4.59 11.98 4.59zm177.61-103.97l2.29 31.85l-21.66 2.29q-16.05 1.53-22.68 9.17q-6.63 7.39-6.63 19.88v65.23h-38.48v-125.12h36.95v21.15q9.43-21.66 38.99-23.7l11.21-0.76zm122.82 29.05l-63.2 70.58l65.74 0v28.79l-110.85 0v-26.76l62.18-69.57h-61.41v-28.79h107.53v25.74zm100.4-86.89l-66 205.89l-28.79-8.66l66-205.89l28.79 8.66zm9.17 76.7v-28.79l124.35 50.71v28.79l-124.35 50.96v-28.79l90.72-36.44l-90.72-36.44z" />
</svg>